<?xml version="1.0" encoding="utf-8"?>
<!-- Generator: Adobe Illustrator 21.0.2, SVG Export Plug-In . SVG Version: 6.00 Build 0)  -->
<svg version="1.1" id="Layer_1" xmlns:x="&ns_extend;" xmlns:i="&ns_ai;" xmlns:graph="&ns_graphs;"
	 xmlns="http://www.w3.org/2000/svg" xmlns:xlink="http://www.w3.org/1999/xlink" x="0px" y="0px" width="462px" height="192px"
	 viewBox="0 0 462 192" style="enable-background:new 0 0 462 192;" xml:space="preserve">
<style type="text/css">
	.st0{fill:#F1EFF3;}
</style>
<metadata>
	<sfw  xmlns="&ns_sfw;">
		<slices></slices>
		<sliceSourceBounds  bottomLeftOrigin="true" height="88.9" width="322.6" x="349.1" y="-561.6"></sliceSourceBounds>
	</sfw>
</metadata>
<g>
	<path class="st0" d="M398.7,70.7c-0.7-0.6-3.2,0-3.6-0.3s-0.7-2-1.2-2.1c-0.5-0.1-13.3,0-13.9,0c-0.6,0-0.4,2.1-1.6,2.1
		c-1.2,0-69.3,0-73.7,0s-21.5-26-32.3-28.1c-10.8-2.1-187.2,2.1-187.2,2.1c-8.4,11.9-10.2,72.6,0,83.5c0,0,176.4,4.2,187.2,2.1
		c10.8-2.1,27.9-28.1,32.3-28.1s72.5,0,73.7,0c1.2,0,1,2.1,1.6,2.1c0.6,0,13.5,0.1,13.9,0c0.5-0.1,0.7-1.8,1.2-2.1
		c0.4-0.3,3,0.4,3.6-0.3C401.8,97.9,401,72.9,398.7,70.7z M142.2,101.9h-8.3l-12-30.8h8.7l7.7,22.3l7.7-22.3h8.3L142.2,101.9z
		 M165.2,101.9h-8V71.1h8V101.9z M199.7,101.9h-7l-14-18.4v18.4h-7.5V71.1h7.1l14,18.5l0-18.5h7.5V101.9z M230.4,101.9h-24.7V71.1
		H230v6.4h-16.3v5.8h14.7v6.4l-14.7,0v5.8h16.7V101.9z"/>
</g>
</svg>
