<?xml version="1.0" encoding="utf-8"?>
<!-- Generator: Adobe Illustrator 21.0.2, SVG Export Plug-In . SVG Version: 6.00 Build 0)  -->
<svg version="1.1" id="Layer_1" xmlns:x="&ns_extend;" xmlns:i="&ns_ai;" xmlns:graph="&ns_graphs;"
	 xmlns="http://www.w3.org/2000/svg" xmlns:xlink="http://www.w3.org/1999/xlink" x="0px" y="0px" width="462px" height="192px"
	 viewBox="0 0 462 192" style="enable-background:new 0 0 462 192;" xml:space="preserve">
<style type="text/css">
	.st0{fill:#F1EFF3;}
</style>
<metadata>
	<sfw  xmlns="&ns_sfw;">
		<slices></slices>
		<sliceSourceBounds  bottomLeftOrigin="true" height="107.3" width="313" x="351.2" y="-580.5"></sliceSourceBounds>
	</sfw>
</metadata>
<path class="st0" d="M391.9,75.9c-0.3-0.9-34-0.2-34.6,0c-0.5,0.2-0.5,5-1.2,5c-1.1,0-27.4-4.2-53.7-2.4c-1.8,0.1-1.5-3.3-2.7-3.4
	c-6.6-0.5-14.8-30.9-22.5-31.8C254.5,41,83.1,42.8,83.1,42.8c-3.8,5.5-3.8,100.5,0,106c0,0,171.4,1.8,194.1-0.5
	c7.7-0.8,15.9-31.3,22.5-31.8c1.2-0.1,0.9-3.6,2.7-3.4c26.8,2.9,52.6-2.4,53.7-2.4c0.7,0,0.7,4.8,1.2,5c0.6,0.3,34.2,1,34.6,0
	C393.6,110.7,393.8,82.2,391.9,75.9z M130.2,111.2h-9l-5-18.9l-5.1,18.9h-8.9l-9.9-29.4h9.3l5.3,20.5l5.3-20.5h8.5l5.3,20.4
	l5.2-20.4h8.9L130.2,111.2z M170.4,111.2h-8.7v-11h-10.5v11h-8.7V81.8h8.7v11.7h10.5V81.8h8.7V111.2z M184.1,111.2h-8.7V81.8h8.7
	V111.2z M199.3,91.5c0.8,0.4,2.2,0.9,4,1.4c2.1,0.6,3.8,1.2,5.1,1.8c1.3,0.6,2.5,1.5,3.5,2.8c1,1.2,1.5,2.9,1.5,4.9
	c0,2-0.5,3.8-1.6,5.2c-1.1,1.4-2.5,2.5-4.4,3.2c-1.8,0.7-3.9,1-6.2,1c-2.5,0-5-0.4-7.6-1.3c-2.5-0.9-4.7-2-6.6-3.5l3.3-6.6
	c1.5,1.3,3.3,2.4,5.4,3.3c2.1,0.9,4,1.3,5.5,1.3c1,0,1.7-0.2,2.2-0.5c0.5-0.4,0.8-0.9,0.8-1.6c0-0.8-0.4-1.4-1.3-1.9
	c-0.9-0.4-2.2-0.9-4-1.4c-2-0.5-3.7-1.1-5.1-1.7c-1.3-0.6-2.5-1.5-3.5-2.7c-1-1.2-1.5-2.8-1.5-4.7c0-1.9,0.5-3.6,1.5-5
	c1-1.4,2.4-2.5,4.3-3.3c1.8-0.8,4-1.1,6.4-1.1c2.2,0,4.4,0.3,6.6,0.9s4.1,1.5,5.7,2.5l-3.2,6.7c-1.6-0.9-3.3-1.7-5.2-2.4
	c-1.9-0.6-3.4-1-4.6-1c-0.8,0-1.4,0.1-1.8,0.4c-0.4,0.3-0.7,0.7-0.7,1.3C198,90.5,198.4,91.1,199.3,91.5z M235.5,111.2l-6.9-10.8
	l-3.3,3.6v7.2h-8.7V81.8h8.7v11.8l9.9-11.8h10.1l-10.7,11.9l11.4,17.5H235.5z M273,111.2h-24.5V81.8h24.1v6.7h-15.3v4.6h13.9v6.7
	h-13.9v4.7H273V111.2z M293.9,101.9v9.3h-8.7v-9.2l-10.8-20.3h8.7l6.4,12l6.3-12h8.7L293.9,101.9z"/>
</svg>
