<?xml version="1.0" encoding="utf-8"?>
<!-- Generator: Adobe Illustrator 21.0.2, SVG Export Plug-In . SVG Version: 6.00 Build 0)  -->
<svg version="1.1" id="Layer_1" xmlns:x="&ns_extend;" xmlns:i="&ns_ai;" xmlns:graph="&ns_graphs;"
	 xmlns="http://www.w3.org/2000/svg" xmlns:xlink="http://www.w3.org/1999/xlink" x="0px" y="0px" width="462px" height="192px"
	 viewBox="0 0 462 192" style="enable-background:new 0 0 462 192;" xml:space="preserve">
<style type="text/css">
	.st0{fill:#F1EFF3;}
</style>
<metadata>
	<sfw  xmlns="&ns_sfw;">
		<slices></slices>
		<sliceSourceBounds  bottomLeftOrigin="true" height="83.3" width="298.4" x="357" y="-551.8"></sliceSourceBounds>
	</sfw>
</metadata>
<g>
	<path class="st0" d="M235.5,70.7h-5.8v9.4h5.8c1.6,0,2.9-0.4,3.8-1.2c0.9-0.8,1.3-2,1.3-3.6c0-1.5-0.4-2.6-1.3-3.4
		C238.5,71.1,237.2,70.7,235.5,70.7z"/>
	<path class="st0" d="M147.7,75.7c0.6-0.5,1-1.3,1-2.3c0-0.9-0.3-1.7-1-2.2c-0.6-0.5-1.5-0.8-2.6-0.7h-6.2v6h6.2
		C146.2,76.5,147.1,76.2,147.7,75.7z"/>
	<path class="st0" d="M148.4,83.2c-0.8-0.6-1.9-0.8-3.3-0.8h-6.2v6.5h6.2c1.4,0,2.5-0.3,3.3-0.9c0.8-0.6,1.2-1.4,1.2-2.5
		C149.6,84.5,149.2,83.7,148.4,83.2z"/>
	<path class="st0" d="M382.3,62c-3.1-1.5-5-1.4-7.8-1.7c-0.5,0.3-0.6,1.8-0.6,1.8s-6.6-1.2-9-1.5c-1.4-0.2-1,1-1.8,1.6
		c-2.7,0.2-63.3-5.9-68.4-6.4c-5.1-0.5-21.7-0.7-28.5-1.5c-6.9-0.8-20.6-14.7-35.2-16c-4.2-1.3-121.2-0.8-126,0
		c-4.8,0.8-9.9,0.5-13.8,3.5c-6.9,6-6.9,68.8,0,74.7c3.9,3,9,2.7,13.8,3.5c4.8,0.8,121.8,1.3,126,0c14.6-1.3,28.4-15.2,35.2-16
		c6.9-0.8,23.4-1,28.5-1.5s65.7-6.6,68.4-6.4c0.7,0.6,0.4,1.8,1.8,1.6c2.3-0.3,9-1.5,9-1.5s0.1,1.5,0.6,1.8c2.8-0.3,4.7-0.2,7.8-1.7
		C385.2,94.9,385.2,63.4,382.3,62z M156.5,91c-1,1.3-2.3,2.3-4.1,3c-1.8,0.7-3.9,1-6.3,1h-15.2V64.2h14.6c2.3,0,4.3,0.3,6,0.9
		s3,1.5,4,2.7c0.9,1.2,1.4,2.5,1.4,4.1c0,1.6-0.5,3-1.4,4.2c-1,1.2-2.2,2-3.9,2.5c2,0.4,3.5,1.3,4.6,2.7c1.1,1.4,1.7,3.1,1.7,5.1
		C157.9,88.2,157.5,89.7,156.5,91z M187.1,95h-24.7V64.2h24.3v6.4h-16.3v5.8h14.7v6.4l-14.7,0v5.8h16.7V95z M216.7,95H192V64.2h24.3
		v6.4H200v5.8h14.7v6.4l-14.7,0v5.8h16.7V95z M240.2,95l-4.5-8.5h-0.2h-5.8V95h-8V64.2h13.8c4.1,0,7.2,0.9,9.5,2.8
		c2.2,1.9,3.4,4.5,3.4,8c0,2.3-0.5,4.3-1.4,6c-0.9,1.7-2.3,3-4.1,3.9l6.4,10.1H240.2z"/>
</g>
</svg>
