<?xml version="1.0" encoding="utf-8"?>
<!-- Generator: Adobe Illustrator 21.0.2, SVG Export Plug-In . SVG Version: 6.00 Build 0)  -->
<svg version="1.1" id="Layer_1" xmlns:x="&ns_extend;" xmlns:i="&ns_ai;" xmlns:graph="&ns_graphs;"
	 xmlns="http://www.w3.org/2000/svg" xmlns:xlink="http://www.w3.org/1999/xlink" x="0px" y="0px" width="462px" height="192px"
	 viewBox="0 0 462 192" style="enable-background:new 0 0 462 192;" xml:space="preserve">
<style type="text/css">
	.st0{fill:#F1EFF3;}
</style>
<metadata>
	<sfw  xmlns="&ns_sfw;">
		<slices></slices>
		<sliceSourceBounds  bottomLeftOrigin="true" height="106" width="313" x="344.2" y="-579.5"></sliceSourceBounds>
	</sfw>
</metadata>
<g>
	<path class="st0" d="M158.6,86.9c-1.3-0.8-2.7-1.2-4.2-1.2c-1.5,0-2.9,0.4-4.2,1.2c-1.3,0.8-2.3,1.9-3.1,3.3
		c-0.8,1.4-1.1,2.9-1.1,4.6c0,1.7,0.4,3.2,1.2,4.6c0.8,1.4,1.8,2.5,3.1,3.3c1.3,0.8,2.7,1.2,4.2,1.2c1.5,0,2.9-0.4,4.2-1.2
		c1.3-0.8,2.3-1.9,3-3.3c0.7-1.4,1.1-2.9,1.1-4.6c0-1.7-0.4-3.2-1.1-4.6C160.9,88.8,159.9,87.7,158.6,86.9z"/>
	<polygon class="st0" points="251.2,98.6 259.7,98.6 255.5,87.6 	"/>
	<path class="st0" d="M384.9,75.5c-0.3-0.9-34-0.2-34.6,0c-0.5,0.2-0.5,2-1.2,2c-1.1,0-39.9,1-53.7,0.6c-1.8-0.1-1.5-3.3-2.7-3.4
		c-6.6-0.5-14.8-30.9-22.5-31.8c-22.6-2.4-194.1,3.8-194.1,3.8c-3.8,5.5-3.8,91.8,0,97.2c0,0,171.4,6.2,194.1,3.8
		c7.7-0.8,15.9-31.3,22.5-31.8c1.2-0.1,0.9-3.3,2.7-3.4c13.8-0.4,52.6,0.6,53.7,0.6c0.7,0,0.7,1.8,1.2,2c0.6,0.3,34.2,1,34.6,0
		C386.6,110.4,386.8,81.9,384.9,75.5z M125.2,110.2h-8.3l-12-30.8h8.7l7.7,22.3l7.7-22.3h8.3L125.2,110.2z M168.8,102.9
		c-1.5,2.4-3.4,4.4-6,5.8c-2.5,1.4-5.4,2.1-8.5,2.1c-3.1,0-6-0.7-8.5-2.1c-2.5-1.4-4.5-3.3-6-5.8c-1.5-2.4-2.2-5.2-2.2-8.2
		c0-3,0.7-5.7,2.2-8.1c1.5-2.4,3.4-4.3,6-5.7c2.5-1.4,5.4-2.1,8.5-2.1c3.1,0,6,0.7,8.5,2.1c2.5,1.4,4.5,3.3,6,5.7
		c1.5,2.4,2.2,5.1,2.2,8.1C171,97.8,170.3,100.5,168.8,102.9z M202.5,102.8c-1.4,2.3-3.4,4.2-5.9,5.4c-2.5,1.3-5.4,1.9-8.7,1.9h-13
		V79.4h13.3c3.2,0,6.1,0.6,8.5,1.9c2.5,1.3,4.4,3.1,5.8,5.4c1.4,2.3,2.1,5,2.1,8S203.9,100.5,202.5,102.8z M228.6,110.2l-8.1-12
		l-3.9,4.3v7.6h-8V79.4h8v13.4l11.6-13.4h9.3l-11.4,12.7l12.1,18.1H228.6z M264.2,110.2l-2.1-5.4h-13.3l-2.2,5.4h-8.3l13.2-30.8h8.3
		l12.9,30.8H264.2z"/>
	<path class="st0" d="M192.4,87.1c-1.3-0.7-2.7-1.1-4.3-1.1H183v17.8h5.4c1.6,0,2.9-0.4,4.1-1.1c1.2-0.7,2.1-1.8,2.8-3.1
		c0.7-1.3,1-2.9,1-4.6c0-1.8-0.4-3.3-1.1-4.7C194.6,88.9,193.6,87.8,192.4,87.1z"/>
</g>
</svg>
